<?xml version="1.0" encoding="UTF-8" standalone="no"?>
<svg
   xmlns:dc="http://purl.org/dc/elements/1.1/"
   xmlns:cc="http://creativecommons.org/ns#"
   xmlns:rdf="http://www.w3.org/1999/02/22-rdf-syntax-ns#"
   xmlns:svg="http://www.w3.org/2000/svg"
   xmlns="http://www.w3.org/2000/svg"
   viewBox="0 0 734.55897 532.64227"
   height="532.64227"
   width="734.55896"
   xml:space="preserve"
   id="svg2"
   version="1.1"><metadata
     id="metadata8"><rdf:RDF><cc:Work
         rdf:about=""><dc:format>image/svg+xml</dc:format><dc:type
           rdf:resource="http://purl.org/dc/dcmitype/StillImage" /><dc:title></dc:title></cc:Work></rdf:RDF></metadata><defs
     id="defs6"><clipPath
       id="clipPath18"
       clipPathUnits="userSpaceOnUse"><path
         id="path16"
         d="M 0,1190.551 H 2525.669 V 0 H 0 Z" /></clipPath></defs><g
     transform="matrix(1.3333333,0,0,-1.3333333,-1333.3466,1305.4958)"
     id="g10"><g
       transform="translate(5.2219835,13.054957)"
       id="g12"><path
         d="m 1539.654,767.493 c -14.213,-28.06 -31.707,-54.305 -50.66,-79.453 -19.68,27.337 -40.818,53.212 -62.689,78.725 22.23,25.88 43.736,52.12 63.054,79.823 18.954,-24.786 36.082,-51.026 50.295,-79.095"
         style="fill:#fd700a;fill-opacity:1;fill-rule:evenodd;stroke:none"
         id="path54" /><path
         d="m 1461.656,881.213 c -21.865,-26.606 -44.828,-52.485 -68.156,-77.999 -29.156,31.708 -59.406,61.962 -91.119,91.119 25.514,23.323 51.392,46.291 77.998,68.156 29.158,-25.148 56.129,-52.485 81.277,-81.276"
         style="fill:#fd8211;fill-opacity:1;fill-rule:evenodd;stroke:none"
         id="path56" /><path
         d="m 1461.656,654.508 c -25.148,-28.796 -52.119,-55.768 -81.277,-80.184 -26.606,21.139 -52.119,43.37 -77.267,66.338 31.708,28.791 61.962,59.04 91.12,90.386 22.961,-24.786 45.559,-50.295 67.424,-76.54"
         style="fill:#fd8211;fill-opacity:1;fill-rule:evenodd;stroke:none"
         id="path58" /><path
         d="m 1359.969,767.493 c -30.615,-31.708 -61.598,-62.324 -93.305,-92.939 -31.708,30.254 -62.689,61.231 -92.938,92.939 30.249,31.712 61.23,63.059 92.938,93.308 31.707,-30.615 62.69,-61.596 93.305,-93.308"
         style="fill:#fd9719;fill-opacity:1;fill-rule:evenodd;stroke:none"
         id="path60" /><path
         d="m 1230.215,895.064 c -31.347,-29.161 -61.23,-59.411 -90.392,-91.118 -22.594,25.147 -45.191,50.661 -65.967,76.901 24.419,29.157 51.391,56.129 80.185,81.281 25.874,-21.504 51.392,-44.106 76.174,-67.064"
         style="fill:#fdba47;fill-opacity:1;fill-rule:evenodd;stroke:none"
         id="path62" /><path
         d="m 1231.308,641.388 c -24.782,-22.596 -49.93,-44.833 -76.175,-65.972 -28.794,24.787 -55.4,51.759 -80.184,80.55 20.775,26.241 43.009,51.393 65.606,76.175 29.156,-31.347 59.411,-61.596 90.753,-90.753"
         style="fill:#fdba47;fill-opacity:1;fill-rule:evenodd;stroke:none"
         id="path64" /><path
         d="m 1108.481,768.589 c -21.504,-25.152 -42.279,-51.026 -60.867,-78.364 -18.588,24.787 -35.353,50.661 -49.205,78.731 13.486,27.698 30.252,53.577 48.476,78.725 18.953,-27.699 39.728,-53.944 61.596,-79.092"
         style="fill:#fdd491;fill-opacity:1;fill-rule:evenodd;stroke:none"
         id="path66" /><rect
         transform="scale(1,-1)"
         y="-966.06689"
         x="994.78796"
         height="399.48172"
         width="550.91925"
         id="rect875"
         style="opacity:0;fill:none;fill-opacity:1;stroke:none;stroke-width:0.69040328" /></g></g></svg>